<svg width="252" height="257" viewBox="0 0 252 257" fill="none" xmlns="http://www.w3.org/2000/svg">
<path d="M126 2.3094L235.119 65.3094V191.309L126 254.309L16.8808 191.309V65.3094L126 2.3094Z" fill="#0D121C" stroke="#16A34A" stroke-width="4"/>
<path d="M126 18.3094L221.263 73.3094V183.309L126 238.309L30.7372 183.309V73.3094L126 18.3094Z" stroke="#16A34A" stroke-width="3"/>
<path d="M81 173.309C81 159.099 89.7632 147.92 105.063 144.888C116.526 142.615 128.368 135.415 133.105 130.678M123.632 168.573C115.314 168.598 107.291 165.496 101.153 159.882C95.0153 154.269 91.2115 146.554 90.4961 138.267C89.7807 129.98 92.2059 121.727 97.2907 115.144C102.376 108.562 109.749 104.131 117.947 102.73C144.947 97.5199 152.053 95.0568 161.526 83.3094C166.263 92.7831 171 103.109 171 121.204C171 147.257 148.358 168.573 123.632 168.573Z" stroke="#16A34A" stroke-width="4" stroke-linecap="round" stroke-linejoin="round"/>
</svg>
